<mxfile host="app.diagrams.net" agent="Mozilla/5.0 (Windows NT 10.0; Win64; x64) AppleWebKit/537.36 (KHTML, like Gecko) Chrome/130.0.0.0 Safari/537.36 Edg/130.0.0.0" version="24.8.3">
  <diagram id="C5RBs43oDa-KdzZeNtuy" name="Page-1">
    <mxGraphModel dx="2493" dy="1926" grid="1" gridSize="10" guides="1" tooltips="1" connect="1" arrows="1" fold="1" page="1" pageScale="1" pageWidth="827" pageHeight="1169" math="0" shadow="0">
      <root>
        <mxCell id="WIyWlLk6GJQsqaUBKTNV-0" />
        <mxCell id="WIyWlLk6GJQsqaUBKTNV-1" parent="WIyWlLk6GJQsqaUBKTNV-0" />
        <mxCell id="uiax5vh5eEyekC1V7cLu-1" value="" style="edgeStyle=orthogonalEdgeStyle;rounded=0;orthogonalLoop=1;jettySize=auto;html=1;" parent="WIyWlLk6GJQsqaUBKTNV-1" source="uiax5vh5eEyekC1V7cLu-0" target="uiax5vh5eEyekC1V7cLu-16" edge="1">
          <mxGeometry relative="1" as="geometry">
            <mxPoint x="220" y="180" as="targetPoint" />
            <Array as="points">
              <mxPoint x="460" y="70" />
              <mxPoint x="460" y="205" />
            </Array>
          </mxGeometry>
        </mxCell>
        <mxCell id="uiax5vh5eEyekC1V7cLu-13" value="BLASTn" style="edgeLabel;html=1;align=center;verticalAlign=middle;resizable=0;points=[];" parent="uiax5vh5eEyekC1V7cLu-1" vertex="1" connectable="0">
          <mxGeometry x="-0.0286" y="-1" relative="1" as="geometry">
            <mxPoint as="offset" />
          </mxGeometry>
        </mxCell>
        <mxCell id="uiax5vh5eEyekC1V7cLu-15" value="" style="edgeStyle=orthogonalEdgeStyle;rounded=0;orthogonalLoop=1;jettySize=auto;html=1;" parent="WIyWlLk6GJQsqaUBKTNV-1" source="uiax5vh5eEyekC1V7cLu-0" target="uiax5vh5eEyekC1V7cLu-14" edge="1">
          <mxGeometry relative="1" as="geometry" />
        </mxCell>
        <mxCell id="uiax5vh5eEyekC1V7cLu-18" value="DIAMOND BLASTx" style="edgeLabel;html=1;align=center;verticalAlign=middle;resizable=0;points=[];" parent="uiax5vh5eEyekC1V7cLu-15" vertex="1" connectable="0">
          <mxGeometry x="0.4684" y="3" relative="1" as="geometry">
            <mxPoint as="offset" />
          </mxGeometry>
        </mxCell>
        <mxCell id="uiax5vh5eEyekC1V7cLu-23" value="" style="edgeStyle=orthogonalEdgeStyle;rounded=0;orthogonalLoop=1;jettySize=auto;html=1;" parent="WIyWlLk6GJQsqaUBKTNV-1" source="uiax5vh5eEyekC1V7cLu-0" edge="1">
          <mxGeometry relative="1" as="geometry">
            <mxPoint x="510" y="-110" as="targetPoint" />
            <Array as="points">
              <mxPoint x="220" y="10" />
              <mxPoint x="371" y="10" />
            </Array>
          </mxGeometry>
        </mxCell>
        <mxCell id="uiax5vh5eEyekC1V7cLu-35" value="" style="edgeStyle=orthogonalEdgeStyle;rounded=0;orthogonalLoop=1;jettySize=auto;html=1;strokeColor=#00FF00;fillColor=#00FF00;" parent="WIyWlLk6GJQsqaUBKTNV-1" source="uiax5vh5eEyekC1V7cLu-0" edge="1">
          <mxGeometry relative="1" as="geometry">
            <mxPoint x="880" y="60" as="targetPoint" />
            <Array as="points">
              <mxPoint x="220" y="280" />
              <mxPoint x="881" y="280" />
            </Array>
          </mxGeometry>
        </mxCell>
        <mxCell id="uiax5vh5eEyekC1V7cLu-64" value="" style="edgeStyle=orthogonalEdgeStyle;rounded=0;orthogonalLoop=1;jettySize=auto;html=1;" parent="WIyWlLk6GJQsqaUBKTNV-1" source="uiax5vh5eEyekC1V7cLu-0" target="uiax5vh5eEyekC1V7cLu-63" edge="1">
          <mxGeometry relative="1" as="geometry" />
        </mxCell>
        <mxCell id="uiax5vh5eEyekC1V7cLu-65" value="EukRep&amp;nbsp;&lt;div&gt;Binning&lt;/div&gt;" style="edgeLabel;html=1;align=center;verticalAlign=middle;resizable=0;points=[];" parent="uiax5vh5eEyekC1V7cLu-64" vertex="1" connectable="0">
          <mxGeometry x="-0.0167" relative="1" as="geometry">
            <mxPoint as="offset" />
          </mxGeometry>
        </mxCell>
        <mxCell id="uiax5vh5eEyekC1V7cLu-0" value="Final Assembly" style="shape=hexagon;perimeter=hexagonPerimeter2;whiteSpace=wrap;html=1;fixedSize=1;fillColor=#00FF00;" parent="WIyWlLk6GJQsqaUBKTNV-1" vertex="1">
          <mxGeometry x="160" y="30" width="120" height="80" as="geometry" />
        </mxCell>
        <mxCell id="uiax5vh5eEyekC1V7cLu-10" value="" style="edgeStyle=orthogonalEdgeStyle;rounded=0;orthogonalLoop=1;jettySize=auto;html=1;" parent="WIyWlLk6GJQsqaUBKTNV-1" source="uiax5vh5eEyekC1V7cLu-2" target="uiax5vh5eEyekC1V7cLu-6" edge="1">
          <mxGeometry relative="1" as="geometry">
            <mxPoint x="550" as="targetPoint" />
            <Array as="points">
              <mxPoint x="370" y="-50" />
              <mxPoint x="370" y="-110" />
            </Array>
          </mxGeometry>
        </mxCell>
        <mxCell id="uiax5vh5eEyekC1V7cLu-39" value="Minimap 2&amp;nbsp;&lt;div&gt;Alignment&lt;/div&gt;" style="edgeLabel;html=1;align=center;verticalAlign=middle;resizable=0;points=[];" parent="uiax5vh5eEyekC1V7cLu-10" vertex="1" connectable="0">
          <mxGeometry x="-0.4183" y="-1" relative="1" as="geometry">
            <mxPoint as="offset" />
          </mxGeometry>
        </mxCell>
        <mxCell id="uiax5vh5eEyekC1V7cLu-40" value="Samtools&amp;nbsp;" style="edgeLabel;html=1;align=center;verticalAlign=middle;resizable=0;points=[];" parent="uiax5vh5eEyekC1V7cLu-10" vertex="1" connectable="0">
          <mxGeometry x="0.5344" y="-2" relative="1" as="geometry">
            <mxPoint x="-5" y="-2" as="offset" />
          </mxGeometry>
        </mxCell>
        <mxCell id="uiax5vh5eEyekC1V7cLu-45" value="" style="edgeStyle=orthogonalEdgeStyle;rounded=0;orthogonalLoop=1;jettySize=auto;html=1;strokeColor=#FF9999;fillColor=#FF9999;" parent="WIyWlLk6GJQsqaUBKTNV-1" source="uiax5vh5eEyekC1V7cLu-2" edge="1">
          <mxGeometry relative="1" as="geometry">
            <mxPoint x="1150" y="50" as="targetPoint" />
            <Array as="points">
              <mxPoint x="220" y="-200" />
              <mxPoint x="1151" y="-200" />
            </Array>
          </mxGeometry>
        </mxCell>
        <mxCell id="uiax5vh5eEyekC1V7cLu-73" value="" style="edgeStyle=orthogonalEdgeStyle;rounded=0;orthogonalLoop=1;jettySize=auto;html=1;strokeColor=#FF9999;" parent="WIyWlLk6GJQsqaUBKTNV-1" source="uiax5vh5eEyekC1V7cLu-2" edge="1">
          <mxGeometry relative="1" as="geometry">
            <mxPoint x="-280" y="-40" as="targetPoint" />
            <Array as="points">
              <mxPoint x="220" y="-110" />
              <mxPoint x="-279" y="-110" />
            </Array>
          </mxGeometry>
        </mxCell>
        <mxCell id="uiax5vh5eEyekC1V7cLu-2" value="Raw Nanopore Reads" style="shape=parallelogram;perimeter=parallelogramPerimeter;whiteSpace=wrap;html=1;fixedSize=1;strokeColor=#000000;fillColor=#FF6666;" parent="WIyWlLk6GJQsqaUBKTNV-1" vertex="1">
          <mxGeometry x="160" y="-80" width="120" height="60" as="geometry" />
        </mxCell>
        <mxCell id="uiax5vh5eEyekC1V7cLu-25" value="" style="edgeStyle=orthogonalEdgeStyle;rounded=0;orthogonalLoop=1;jettySize=auto;html=1;entryX=-0.008;entryY=0.171;entryDx=0;entryDy=0;entryPerimeter=0;" parent="WIyWlLk6GJQsqaUBKTNV-1" source="uiax5vh5eEyekC1V7cLu-6" target="uiax5vh5eEyekC1V7cLu-24" edge="1">
          <mxGeometry relative="1" as="geometry">
            <mxPoint x="860" y="50" as="targetPoint" />
          </mxGeometry>
        </mxCell>
        <mxCell id="uiax5vh5eEyekC1V7cLu-33" value="&lt;font style=&quot;font-size: 12px;&quot;&gt;Blobtoolskit&lt;/font&gt;" style="edgeLabel;html=1;align=center;verticalAlign=middle;resizable=0;points=[];" parent="uiax5vh5eEyekC1V7cLu-25" vertex="1" connectable="0">
          <mxGeometry x="0.6351" y="1" relative="1" as="geometry">
            <mxPoint as="offset" />
          </mxGeometry>
        </mxCell>
        <mxCell id="uiax5vh5eEyekC1V7cLu-37" value="" style="edgeStyle=orthogonalEdgeStyle;rounded=0;orthogonalLoop=1;jettySize=auto;html=1;" parent="WIyWlLk6GJQsqaUBKTNV-1" source="uiax5vh5eEyekC1V7cLu-6" edge="1">
          <mxGeometry relative="1" as="geometry">
            <mxPoint x="850" y="40" as="targetPoint" />
          </mxGeometry>
        </mxCell>
        <mxCell id="uiax5vh5eEyekC1V7cLu-6" value="Coverage BAM &lt;span style=&quot;white-space: pre;&quot;&gt;&#x9;&lt;/span&gt;File" style="shape=trapezoid;perimeter=trapezoidPerimeter;whiteSpace=wrap;html=1;fixedSize=1;strokeColor=#99FFFF;" parent="WIyWlLk6GJQsqaUBKTNV-1" vertex="1">
          <mxGeometry x="640" y="-150" width="120" height="60" as="geometry" />
        </mxCell>
        <mxCell id="uiax5vh5eEyekC1V7cLu-31" value="" style="edgeStyle=orthogonalEdgeStyle;rounded=0;orthogonalLoop=1;jettySize=auto;html=1;" parent="WIyWlLk6GJQsqaUBKTNV-1" source="uiax5vh5eEyekC1V7cLu-14" edge="1">
          <mxGeometry relative="1" as="geometry">
            <mxPoint x="840" y="50" as="targetPoint" />
          </mxGeometry>
        </mxCell>
        <mxCell id="uiax5vh5eEyekC1V7cLu-14" value="Uniprot Aligment file" style="triangle;whiteSpace=wrap;html=1;align=left;strokeColor=#FF00FF;" parent="WIyWlLk6GJQsqaUBKTNV-1" vertex="1">
          <mxGeometry x="640" y="10" width="130" height="100" as="geometry" />
        </mxCell>
        <mxCell id="uiax5vh5eEyekC1V7cLu-32" value="" style="edgeStyle=orthogonalEdgeStyle;rounded=0;orthogonalLoop=1;jettySize=auto;html=1;" parent="WIyWlLk6GJQsqaUBKTNV-1" source="uiax5vh5eEyekC1V7cLu-16" edge="1">
          <mxGeometry relative="1" as="geometry">
            <mxPoint x="860" y="60" as="targetPoint" />
          </mxGeometry>
        </mxCell>
        <mxCell id="uiax5vh5eEyekC1V7cLu-16" value="Nucleotite Alignment file" style="triangle;whiteSpace=wrap;html=1;align=left;strokeColor=#7F00FF;" parent="WIyWlLk6GJQsqaUBKTNV-1" vertex="1">
          <mxGeometry x="640" y="150" width="150" height="110" as="geometry" />
        </mxCell>
        <mxCell id="uiax5vh5eEyekC1V7cLu-42" value="" style="edgeStyle=orthogonalEdgeStyle;rounded=0;orthogonalLoop=1;jettySize=auto;html=1;" parent="WIyWlLk6GJQsqaUBKTNV-1" source="uiax5vh5eEyekC1V7cLu-24" edge="1">
          <mxGeometry relative="1" as="geometry">
            <mxPoint x="1230" y="65" as="targetPoint" />
          </mxGeometry>
        </mxCell>
        <mxCell id="uiax5vh5eEyekC1V7cLu-46" value="Minimap2 aligning&lt;div&gt;&amp;nbsp;of reads to Bins&lt;/div&gt;" style="edgeLabel;html=1;align=center;verticalAlign=middle;resizable=0;points=[];" parent="uiax5vh5eEyekC1V7cLu-42" vertex="1" connectable="0">
          <mxGeometry x="0.0875" relative="1" as="geometry">
            <mxPoint y="5" as="offset" />
          </mxGeometry>
        </mxCell>
        <mxCell id="uiax5vh5eEyekC1V7cLu-24" value="Blobtools Taxonomic&amp;nbsp;&lt;div&gt;&lt;span style=&quot;background-color: initial;&quot;&gt;Bins&lt;/span&gt;&lt;/div&gt;" style="rounded=1;whiteSpace=wrap;html=1;strokeColor=#6666FF;" parent="WIyWlLk6GJQsqaUBKTNV-1" vertex="1">
          <mxGeometry x="940" y="35" width="120" height="70" as="geometry" />
        </mxCell>
        <mxCell id="uiax5vh5eEyekC1V7cLu-48" value="" style="edgeStyle=orthogonalEdgeStyle;rounded=0;orthogonalLoop=1;jettySize=auto;html=1;" parent="WIyWlLk6GJQsqaUBKTNV-1" edge="1">
          <mxGeometry relative="1" as="geometry">
            <mxPoint x="1230" y="65" as="sourcePoint" />
            <mxPoint x="1370" y="65" as="targetPoint" />
          </mxGeometry>
        </mxCell>
        <mxCell id="uiax5vh5eEyekC1V7cLu-49" value="Porifera Aligned Reads&lt;div&gt;extracted with&amp;nbsp;&lt;/div&gt;&lt;div&gt;Samtools&lt;/div&gt;" style="edgeLabel;html=1;align=center;verticalAlign=middle;resizable=0;points=[];" parent="uiax5vh5eEyekC1V7cLu-48" vertex="1" connectable="0">
          <mxGeometry x="-0.4892" y="1" relative="1" as="geometry">
            <mxPoint x="24" y="-4" as="offset" />
          </mxGeometry>
        </mxCell>
        <mxCell id="uiax5vh5eEyekC1V7cLu-51" value="" style="edgeStyle=orthogonalEdgeStyle;rounded=0;orthogonalLoop=1;jettySize=auto;html=1;" parent="WIyWlLk6GJQsqaUBKTNV-1" target="uiax5vh5eEyekC1V7cLu-50" edge="1">
          <mxGeometry relative="1" as="geometry">
            <mxPoint x="1370" y="65" as="sourcePoint" />
          </mxGeometry>
        </mxCell>
        <mxCell id="uiax5vh5eEyekC1V7cLu-85" value="" style="edgeStyle=orthogonalEdgeStyle;rounded=0;orthogonalLoop=1;jettySize=auto;html=1;" parent="WIyWlLk6GJQsqaUBKTNV-1" source="uiax5vh5eEyekC1V7cLu-50" target="uiax5vh5eEyekC1V7cLu-84" edge="1">
          <mxGeometry relative="1" as="geometry" />
        </mxCell>
        <mxCell id="uiax5vh5eEyekC1V7cLu-86" value="Assembly using&lt;div&gt;&amp;nbsp;Flye&lt;/div&gt;" style="edgeLabel;html=1;align=center;verticalAlign=middle;resizable=0;points=[];" parent="uiax5vh5eEyekC1V7cLu-85" vertex="1" connectable="0">
          <mxGeometry x="-0.12" y="3" relative="1" as="geometry">
            <mxPoint as="offset" />
          </mxGeometry>
        </mxCell>
        <mxCell id="uiax5vh5eEyekC1V7cLu-50" value="&lt;div&gt;Porifera&amp;nbsp;&lt;/div&gt;&lt;div&gt;Reads&lt;/div&gt;" style="ellipse;whiteSpace=wrap;html=1;rounded=1;strokeColor=#FF9999;fillColor=#FFFFFF;" parent="WIyWlLk6GJQsqaUBKTNV-1" vertex="1">
          <mxGeometry x="1500" y="20" width="110" height="90" as="geometry" />
        </mxCell>
        <mxCell id="uiax5vh5eEyekC1V7cLu-56" value="" style="endArrow=classic;html=1;rounded=0;entryX=0;entryY=0.625;entryDx=0;entryDy=0;entryPerimeter=0;" parent="WIyWlLk6GJQsqaUBKTNV-1" target="uiax5vh5eEyekC1V7cLu-59" edge="1">
          <mxGeometry width="50" height="50" relative="1" as="geometry">
            <mxPoint x="1160" y="90" as="sourcePoint" />
            <mxPoint x="1460" y="171" as="targetPoint" />
            <Array as="points">
              <mxPoint x="1160" y="90" />
              <mxPoint x="1160" y="120" />
              <mxPoint x="1160" y="170" />
            </Array>
          </mxGeometry>
        </mxCell>
        <mxCell id="uiax5vh5eEyekC1V7cLu-58" value="Reads aligning to a Non Porifera extracted&amp;nbsp;&amp;nbsp;" style="edgeLabel;html=1;align=center;verticalAlign=middle;resizable=0;points=[];" parent="uiax5vh5eEyekC1V7cLu-56" vertex="1" connectable="0">
          <mxGeometry x="0.0619" y="1" relative="1" as="geometry">
            <mxPoint x="-18" as="offset" />
          </mxGeometry>
        </mxCell>
        <mxCell id="uiax5vh5eEyekC1V7cLu-59" value="Reads from a Non Porifera&amp;nbsp;&lt;div&gt;taxon #1&lt;/div&gt;" style="ellipse;whiteSpace=wrap;html=1;strokeColor=#7EA6E0;" parent="WIyWlLk6GJQsqaUBKTNV-1" vertex="1">
          <mxGeometry x="1490" y="120" width="120" height="80" as="geometry" />
        </mxCell>
        <mxCell id="uiax5vh5eEyekC1V7cLu-60" value="" style="endArrow=classic;html=1;rounded=0;entryX=-0.017;entryY=0.638;entryDx=0;entryDy=0;entryPerimeter=0;" parent="WIyWlLk6GJQsqaUBKTNV-1" target="uiax5vh5eEyekC1V7cLu-62" edge="1">
          <mxGeometry width="50" height="50" relative="1" as="geometry">
            <mxPoint x="1160" y="170" as="sourcePoint" />
            <mxPoint x="1500" y="281" as="targetPoint" />
            <Array as="points">
              <mxPoint x="1160" y="230" />
              <mxPoint x="1160" y="281" />
            </Array>
          </mxGeometry>
        </mxCell>
        <mxCell id="uiax5vh5eEyekC1V7cLu-61" value="reads aligning to a Non Porifera extracted&amp;nbsp;&amp;nbsp;" style="edgeLabel;html=1;align=center;verticalAlign=middle;resizable=0;points=[];" parent="uiax5vh5eEyekC1V7cLu-60" vertex="1" connectable="0">
          <mxGeometry x="0.0619" y="1" relative="1" as="geometry">
            <mxPoint as="offset" />
          </mxGeometry>
        </mxCell>
        <mxCell id="uiax5vh5eEyekC1V7cLu-62" value="Reads from Non Porifera&lt;div&gt;&amp;nbsp;taxon #2&lt;/div&gt;" style="ellipse;whiteSpace=wrap;html=1;strokeColor=#FF00FF;" parent="WIyWlLk6GJQsqaUBKTNV-1" vertex="1">
          <mxGeometry x="1490" y="230" width="120" height="80" as="geometry" />
        </mxCell>
        <mxCell id="uiax5vh5eEyekC1V7cLu-76" value="" style="edgeStyle=orthogonalEdgeStyle;rounded=0;orthogonalLoop=1;jettySize=auto;html=1;" parent="WIyWlLk6GJQsqaUBKTNV-1" target="uiax5vh5eEyekC1V7cLu-87" edge="1">
          <mxGeometry relative="1" as="geometry">
            <mxPoint x="-280" y="70" as="sourcePoint" />
            <mxPoint x="-280" y="170" as="targetPoint" />
          </mxGeometry>
        </mxCell>
        <mxCell id="uiax5vh5eEyekC1V7cLu-79" value="Aligned reads&amp;nbsp;&lt;div&gt;extracted with&amp;nbsp;&lt;/div&gt;&lt;div&gt;Samtools&lt;/div&gt;" style="edgeLabel;html=1;align=center;verticalAlign=middle;resizable=0;points=[];" parent="uiax5vh5eEyekC1V7cLu-76" vertex="1" connectable="0">
          <mxGeometry x="-0.78" y="1" relative="1" as="geometry">
            <mxPoint y="9" as="offset" />
          </mxGeometry>
        </mxCell>
        <mxCell id="uiax5vh5eEyekC1V7cLu-89" value="" style="edgeStyle=orthogonalEdgeStyle;rounded=0;orthogonalLoop=1;jettySize=auto;html=1;" parent="WIyWlLk6GJQsqaUBKTNV-1" source="uiax5vh5eEyekC1V7cLu-63" target="uiax5vh5eEyekC1V7cLu-88" edge="1">
          <mxGeometry relative="1" as="geometry" />
        </mxCell>
        <mxCell id="uiax5vh5eEyekC1V7cLu-63" value="Eukaryotic&lt;div&gt;Contigs&lt;/div&gt;" style="ellipse;whiteSpace=wrap;html=1;fillColor=#FFFFFF;strokeColor=#B5739D;" parent="WIyWlLk6GJQsqaUBKTNV-1" vertex="1">
          <mxGeometry x="-170" y="35" width="80" height="80" as="geometry" />
        </mxCell>
        <mxCell id="uiax5vh5eEyekC1V7cLu-66" value="" style="endArrow=classic;html=1;rounded=0;entryX=1;entryY=0.5;entryDx=0;entryDy=0;entryPerimeter=0;" parent="WIyWlLk6GJQsqaUBKTNV-1" target="uiax5vh5eEyekC1V7cLu-67" edge="1">
          <mxGeometry width="50" height="50" relative="1" as="geometry">
            <mxPoint x="40" y="50" as="sourcePoint" />
            <mxPoint x="-90" y="-20" as="targetPoint" />
            <Array as="points">
              <mxPoint x="40" y="-20" />
            </Array>
          </mxGeometry>
        </mxCell>
        <mxCell id="uiax5vh5eEyekC1V7cLu-71" value="" style="edgeStyle=orthogonalEdgeStyle;rounded=0;orthogonalLoop=1;jettySize=auto;html=1;" parent="WIyWlLk6GJQsqaUBKTNV-1" source="uiax5vh5eEyekC1V7cLu-67" edge="1">
          <mxGeometry relative="1" as="geometry">
            <mxPoint x="-280" y="70" as="targetPoint" />
          </mxGeometry>
        </mxCell>
        <mxCell id="uiax5vh5eEyekC1V7cLu-74" value="Minimap2 aligning&lt;div&gt;of reads to contigs&lt;/div&gt;" style="edgeLabel;html=1;align=center;verticalAlign=middle;resizable=0;points=[];" parent="uiax5vh5eEyekC1V7cLu-71" vertex="1" connectable="0">
          <mxGeometry x="-0.4047" y="2" relative="1" as="geometry">
            <mxPoint x="-51" y="-2" as="offset" />
          </mxGeometry>
        </mxCell>
        <mxCell id="uiax5vh5eEyekC1V7cLu-67" value="Prokaryotic&lt;div&gt;Contigs&lt;/div&gt;" style="ellipse;whiteSpace=wrap;html=1;aspect=fixed;strokeColor=#663300;" parent="WIyWlLk6GJQsqaUBKTNV-1" vertex="1">
          <mxGeometry x="-170" y="-60" width="80" height="80" as="geometry" />
        </mxCell>
        <mxCell id="uiax5vh5eEyekC1V7cLu-84" value="Decontaminated&amp;nbsp;&lt;div&gt;Porifera (blobtools)&lt;/div&gt;&lt;div&gt;Assembly&lt;/div&gt;" style="ellipse;whiteSpace=wrap;html=1;fillColor=#FF9999;strokeColor=#FF9999;rounded=1;shadow=1;" parent="WIyWlLk6GJQsqaUBKTNV-1" vertex="1">
          <mxGeometry x="1500" y="-172.5" width="110" height="105" as="geometry" />
        </mxCell>
        <mxCell id="uiax5vh5eEyekC1V7cLu-87" value="Reads from Prokaryotic contaminants" style="ellipse;whiteSpace=wrap;html=1;strokeColor=#663300;" parent="WIyWlLk6GJQsqaUBKTNV-1" vertex="1">
          <mxGeometry x="-340" y="167.5" width="120" height="80" as="geometry" />
        </mxCell>
        <mxCell id="uiax5vh5eEyekC1V7cLu-88" value="Reads belonging to&amp;nbsp;&lt;div&gt;Eukaryotes&lt;/div&gt;&lt;div&gt;&amp;nbsp;(likely Porifera)&lt;/div&gt;" style="ellipse;whiteSpace=wrap;html=1;fillColor=#FFFFFF;strokeColor=#B5739D;" parent="WIyWlLk6GJQsqaUBKTNV-1" vertex="1">
          <mxGeometry x="-195" y="167.5" width="130" height="75" as="geometry" />
        </mxCell>
      </root>
    </mxGraphModel>
  </diagram>
</mxfile>
